<?xml version="1.0" encoding="UTF-8" standalone="no"?>
<svg
   width="250"
   height="60"
   viewBox="0 0 250 60"
   fill="none"
   version="1.1"
   id="svg627"
   xml:space="preserve"
   xmlns="http://www.w3.org/2000/svg"
   xmlns:svg="http://www.w3.org/2000/svg"><defs
     id="defs631" /><path
     style="display:inline;fill:#ee7c34;stroke-width:0.176983"
     d="m 104.62739,58.632617 c -7.805909,-0.73692 -13.630641,-1.96544 -21.076984,-4.44545 -7.100985,-2.36499 -12.946593,-5.12835 -18.329204,-8.66468 -3.998687,-2.6271 -6.011097,-4.300547 -7.531515,-6.262919 -1.282289,-1.655026 -1.242179,-1.8598 0.360462,-1.840305 0.660332,0.008 2.349361,0.190312 3.753401,0.405064 2.796151,0.427682 3.499279,0.43401 3.615681,0.03254 0.04233,-0.146006 -0.807139,-1.405527 -1.887713,-2.798934 -5.281608,-6.810656 -7.679045,-12.269489 -7.676749,-17.479535 0.0022,-4.98269 2.012443,-8.4462376 6.576641,-11.3312076 5.226066,-3.303328 13.134403,-5.103008 23.319438,-5.30674503 3.830333,-0.07662 4.27739,0.10983203 0.654678,0.27304303 -10.396178,0.46837 -17.825824,3.43925 -21.115033,8.443234 -3.102056,4.7192636 -2.759677,11.0986206 0.961259,17.9105096 2.124482,3.889277 6.149169,8.571146 9.964293,11.591342 2.602227,2.060018 4.29738,3.495093 4.29738,3.638053 0,0.22784 -1.761638,0.14974 -5.041122,-0.22349 -1.728293,-0.1967 -3.217999,-0.35817 -3.310455,-0.35884 -0.439315,-0.003 0.930985,1.30368 2.741717,2.61476 7.271461,5.265 17.113794,8.78957 27.978015,10.01903 8.30525,0.93986 16.31375,0.23288 23.09708,-2.03899 1.83603,-0.61492 2.49984,-0.9356 3.86183,-1.86561 0.90458,-0.61767 1.72729,-1.12304 1.82825,-1.12304 0.10096,0 0.11908,0.26522 0.0403,0.58938 -0.14608,0.60083 -1.58423,1.77909 -4.71347,3.86168 -3.06319,2.03863 -6.89338,3.35799 -11.91142,4.10305 -1.46419,0.2174 -8.93456,0.40176 -10.45674,0.25806 z M 26.076522,20.503403 c -0.238973,-0.504771 -0.340836,-4.141789 -0.123482,-4.408915 0.234967,-0.288773 0.384683,-0.291859 14.160986,-0.291859 h 13.923508 l -0.01929,2.439188 -0.01929,2.439189 -13.918754,8.61e-4 c -10.94517,7.61e-4 -13.936883,-0.03738 -14.003678,-0.178464 z"
     id="path310" /><path
     style="display:inline;fill:#ffffff;stroke-width:0.176983"
     d="m 108.50123,54.547037 c -2.48504,-0.15805 -8.38142,-0.96917 -10.311498,-1.41848 -0.30006,-0.0699 -0.840174,-0.17151 -1.200247,-0.22591 l -0.654678,-0.0989 0.532801,-0.13361 c 0.359889,-0.0902 1.245154,-0.0566 2.727824,0.10363 1.362658,0.14728 3.519058,0.23981 5.686638,0.24401 3.0568,0.006 3.81772,-0.0426 6.11032,-0.38931 2.8609,-0.43272 3.24298,-0.5546 7.41969,-2.36666 l 2.83693,-1.23081 4.20085,-0.0444 c 3.75134,-0.0397 4.20085,-0.0196 4.20085,0.18765 0,0.31315 -2.9256,2.11051 -4.926,3.02633 -2.41027,1.10346 -7.01344,2.02956 -11.70297,2.35448 -2.24419,0.1555 -2.35235,0.15532 -4.92051,-0.008 z m 6.97089,-11.54451 c 0.004,-0.23683 0.0533,-0.31634 0.10868,-0.17669 0.0553,0.13966 0.0517,0.33343 -0.008,0.43061 -0.0598,0.0972 -0.10505,-0.0171 -0.1006,-0.25392 z m 14.96049,-0.895717 c 0.75015,-0.02803 1.97767,-0.02803 2.72782,0 0.75015,0.02803 0.13639,0.05096 -1.36391,0.05096 -1.5003,0 -2.11406,-0.02293 -1.36391,-0.05096 z m -27.27824,-2.141813 c 0.15003,-0.03982 0.39553,-0.03982 0.54556,0 0.15003,0.03982 0.0273,0.0724 -0.27278,0.0724 -0.30006,0 -0.42281,-0.03258 -0.27278,-0.0724 z M 25.955516,36.469935 c -0.277938,-0.341584 -0.212594,-12.020363 0.06885,-12.306388 0.138275,-0.140522 3.270694,-0.179419 14.449059,-0.179419 h 14.272509 l 0.241915,0.610025 c 0.13305,0.335513 0.518315,1.191341 0.856141,1.901839 0.337827,0.710499 0.680979,1.436528 0.76256,1.613399 l 0.148329,0.321583 -10.652559,0.03726 -10.65256,0.03725 -0.06276,1.505099 c -0.05383,1.290983 -0.0091,1.530911 0.314492,1.686537 0.292606,0.140729 2.92723,0.181439 11.742232,0.181439 h 11.364981 l 1.250415,1.478223 c 1.268096,1.499126 1.42763,1.922072 1.114024,2.953422 l -0.136392,0.448547 h -17.42312 c -17.234878,0 -17.425659,-0.0031 -17.658122,-0.288815 z M 86.310641,36.186661 75.631795,36.112841 72.411856,32.452697 C 67.61583,27.000995 67.167169,26.010602 67.17748,20.898123 c 0.0035,-1.736774 0.07281,-3.663283 0.154013,-4.281131 0.126944,-0.965892 0.212314,-1.138789 0.609016,-1.233428 0.349908,-0.08348 8.4485,-0.106128 9.356549,-0.02617 0.09138,0.0081 0.150502,3.441305 0.131392,7.629463 -0.02207,4.836107 0.04364,7.666395 0.180071,7.756129 0.13549,0.08912 4.211506,0.138425 11.037618,0.133525 l 10.822803,-0.0078 0.34241,0.321541 c 0.272368,0.255773 0.342408,0.742054 0.342408,2.377388 0,1.991369 -0.0168,2.066895 -0.535648,2.408158 -0.44038,0.289659 -0.72175,0.346297 -1.58214,0.318481 -0.575567,-0.01861 -5.851967,-0.06705 -11.725331,-0.107651 z m 15.370699,-0.26307 c 0,-0.442327 3.14079,-6.041268 9.0326,-16.10198 2.71054,-4.628463 2.70707,-4.623629 3.40956,-4.752271 1.06253,-0.194577 4.67312,-0.140572 5.1453,0.07696 0.55123,0.253951 0.13324,-0.384172 6.53237,9.972661 2.94644,4.768732 5.44867,8.77336 5.56051,8.899175 0.12712,0.143004 0.20583,-3.389603 0.20998,-9.423982 l 0.007,-9.652734 h 3.06057 3.06056 l 0.21174,0.36629 c 0.11645,0.201458 3.08462,3.188534 6.59593,6.637944 l 6.3842,6.271656 0.0567,-6.637944 0.0567,-6.637946 h 3.1621 3.1621 v 10.549828 10.549828 h -3.15407 -3.15406 l -0.41519,-0.617356 c -0.3904,-0.580489 -11.74481,-11.842539 -12.39651,-12.295675 -0.25781,-0.179254 -0.30228,0.755201 -0.30228,6.351427 v 6.561604 h -6.28096 -6.28095 l -1.63451,-2.906585 -1.63452,-2.906586 -5.36287,-0.03834 -5.36287,-0.03834 -1.59314,2.944929 -1.59314,2.944928 h -3.24128 c -1.7827,0 -3.24127,-0.05287 -3.24127,-0.117484 z m 18.07638,-9.623559 c -0.04,-0.06831 -0.75709,-1.326607 -1.59353,-2.796226 -0.83643,-1.469619 -1.58563,-2.624809 -1.66489,-2.567089 -0.0793,0.05772 -0.26704,0.363305 -0.41729,0.679083 -0.15026,0.315777 -0.80043,1.468605 -1.44483,2.561838 -0.6444,1.093235 -1.17164,2.045949 -1.17164,2.117142 0,0.07119 1.43211,0.129445 3.18246,0.129445 1.75036,0 3.14973,-0.05589 3.10972,-0.124193 z m 81.10732,9.651213 c -0.24005,-0.03109 -0.97657,-0.12725 -1.6367,-0.213685 -1.74345,-0.228278 -4.06708,-1.080667 -5.48261,-2.011215 -1.93797,-1.273989 -3.0282,-3.023074 -3.0282,-4.858215 v -0.674682 l 2.42477,-0.172978 c 2.96812,-0.211739 3.30364,-0.121392 3.66501,0.98691 0.32963,1.010942 0.97451,1.783007 1.86056,2.227522 2.92493,1.46738 8.45091,1.34998 10.4623,-0.222274 0.74597,-0.583103 0.80111,-1.631795 0.11594,-2.204722 -0.71548,-0.598263 -1.837,-0.895134 -6.24353,-1.652689 -5.10641,-0.877876 -6.27544,-1.165553 -7.86047,-1.93432 -2.39091,-1.159637 -3.20242,-2.268789 -3.21524,-4.39454 -0.008,-1.385368 0.0411,-1.569856 0.61246,-2.283729 1.86367,-2.328586 6.45298,-3.745652 11.50236,-3.551653 3.71044,0.142557 6.06598,0.764045 8.18941,2.160706 1.65782,1.090401 2.17407,1.741501 2.59204,3.269079 0.17984,0.657271 0.38548,1.330263 0.45698,1.495535 0.12549,0.290094 0.037,0.303568 -2.55607,0.389324 -3.30204,0.1092 -3.44861,0.06302 -3.99216,-1.25773 -0.64035,-1.555964 -1.6893,-2.021584 -4.9208,-2.184297 -2.41497,-0.121599 -4.04577,0.140449 -5.07113,0.814865 -0.66812,0.439451 -0.82097,0.644079 -0.82097,1.099076 0,1.168742 0.86469,1.480335 6.87949,2.479028 5.1111,0.848642 6.98024,1.398584 8.6131,2.534169 0.61391,0.426949 1.38094,1.147838 1.70451,1.601978 0.52211,0.732785 0.58831,0.995648 0.58831,2.335842 0,1.415358 -0.0447,1.569931 -0.7131,2.462872 -1.27529,1.703859 -4.18068,3.149126 -7.30446,3.633551 -1.25124,0.194038 -5.66747,0.275782 -6.8218,0.126272 z M 164.09396,25.475818 V 15.19763 l 7.36513,0.07093 c 5.52865,0.05324 7.72545,0.12584 8.81022,0.291158 4.11814,0.627607 7.50462,2.71625 8.80964,5.43343 0.7491,1.559698 1.15185,4.952382 0.78993,6.654059 -0.70352,3.30774 -3.23403,5.927489 -6.86149,7.103447 -2.81457,0.912437 -3.82995,0.998013 -11.87564,1.000862 l -7.03779,0.0025 z m 15.10239,6.179646 c 2.89153,-0.648031 4.53795,-2.901207 4.53795,-6.210342 0,-2.271872 -0.73729,-3.882146 -2.30142,-5.026399 -1.50556,-1.101409 -2.11624,-1.213006 -7.02774,-1.284276 l -4.20085,-0.06096 v 6.402534 6.402535 h 3.9983 c 3.04365,0 4.23599,-0.05327 4.99376,-0.223094 z m -65.17432,-18.256832 -2.60778,-0.04571 -1.32028,-0.825271 C 103.97265,8.7014034 98.255492,6.5126674 92.297627,5.7145794 c -4.02444,-0.539096 -4.839301,-0.604034 -7.31057,-0.582602 -3.462362,0.03003 -6.505933,0.446077 -9.593228,1.311371 -2.554848,0.716062 -3.922981,1.321397 -6.411361,2.836727 -1.729371,1.0531216 -1.939426,0.9768856 -0.930502,-0.337708 1.259585,-1.6412 4.68032,-3.709751 7.878714,-4.764336 4.27595,-1.409879 6.949268,-1.7702 13.20267,-1.779509 4.181408,-0.0062 4.84075,0.02809 7.528796,0.391833 3.295866,0.445993 5.879874,0.9447 7.260524,1.401262 3.34923,1.107543 9.43237,3.471998 10.82125,4.206107 2.58643,1.36709 7.18918,4.2184546 7.35106,4.5539136 0.27829,0.576717 0.0499,0.589362 -8.07295,0.446994 z"
     id="path304" /><path
     style="display:inline;fill:#ff0000;stroke-width:0.176983"
     d="m 116.40675,47.255317 c -1.21043,-0.36166 -2.25704,-1.09031 -2.91171,-2.02712 -0.454,-0.64966 -0.55202,-1.00746 -0.55073,-2.01037 0.003,-2.177856 0.99779,-3.481417 3.22801,-4.229166 1.10519,-0.370547 1.52395,-0.431142 2.94605,-0.426295 1.84116,0.0063 2.95311,0.290794 3.97876,1.018057 0.56803,0.402777 1.37829,1.325002 1.24124,1.412761 -0.0388,0.02488 -0.6353,0.141929 -1.32544,0.260104 -1.02485,0.175491 -1.2548,0.179926 -1.2548,0.0242 0,-0.342347 -1.08793,-1.05094 -1.87629,-1.222072 -1.58415,-0.343877 -3.48978,0.319864 -4.03436,1.405189 -0.35318,0.703872 -0.3545,2.247992 -0.003,3.072642 0.4265,0.99957 1.26008,1.45146 2.81377,1.52538 1.12266,0.0534 1.34316,0.0172 1.95404,-0.32089 0.37872,-0.2096 0.8111,-0.60396 0.96086,-0.87636 0.14976,-0.2724 0.35638,-0.49527 0.45915,-0.49527 0.4496,0 2.14371,0.33339 2.24571,0.44194 0.39538,0.42078 -1.49051,2.0432 -2.84572,2.44814 -1.1951,0.3571 -3.82935,0.35664 -5.02591,-8.6e-4 z m -23.017994,-3.53512 v -3.66014 H 91.303653 89.21855 l 0.06651,-0.681792 0.06651,-0.681791 5.29198,-0.03844 5.291982,-0.03844 v 0.720228 0.720227 h -1.96404 -1.96403 v 3.660148 3.66014 H 94.698106 93.38875 Z m 7.856134,1.00475 v -2.655399 h 4.69186 4.69185 v 0.717679 0.71767 h -3.3825 -3.3825 v 1.29182 1.29181 h 3.70984 3.70984 v 0.64591 0.64591 h -5.01919 -5.0192 z m 25.09598,-1.72242 v -4.377821 h 1.30264 1.30264 l 0.0613,1.758305 0.0613,1.758305 2.67326,0.0403 2.67327,0.0403 v -1.798607 -1.798607 h 1.30936 1.30935 v 4.377824 4.37782 h -1.30935 -1.30936 v -1.86596 -1.86596 h -2.72782 -2.72783 v 1.86596 1.86596 h -1.30935 -1.30936 z m -23.73207,-3.048743 -1.36391,-0.05096 v -0.639059 -0.639059 h 4.91008 4.91008 v 0.717676 0.717675 l -3.54617,-0.02766 c -1.95039,-0.01521 -4.15993,-0.05059 -4.91008,-0.07862 z"
     id="path302" /></svg>
